<?xml version="1.0" encoding="UTF-8" standalone="no"?>
<svg
   xmlns:dc="http://purl.org/dc/elements/1.1/"
   xmlns:cc="http://creativecommons.org/ns#"
   xmlns:rdf="http://www.w3.org/1999/02/22-rdf-syntax-ns#"
   xmlns:svg="http://www.w3.org/2000/svg"
   xmlns="http://www.w3.org/2000/svg"
   xmlns:sodipodi="http://sodipodi.sourceforge.net/DTD/sodipodi-0.dtd"
   xmlns:inkscape="http://www.inkscape.org/namespaces/inkscape"
   width="66mm"
   height="66mm"
   viewBox="0 0 66 66"
   version="1.1"
   id="svg8"
   inkscape:version="1.0 (6e3e5246a0, 2020-05-07)"
   sodipodi:docname="simbolo.svg">
  <defs
     id="defs2" />
  <sodipodi:namedview
     id="base"
     pagecolor="#ffffff"
     bordercolor="#666666"
     borderopacity="1.0"
     inkscape:pageopacity="0.0"
     inkscape:pageshadow="2"
     inkscape:zoom="3.959798"
     inkscape:cx="95.403346"
     inkscape:cy="130.66837"
     inkscape:document-units="mm"
     inkscape:current-layer="layer1"
     inkscape:document-rotation="0"
     showgrid="false"
     inkscape:window-width="1360"
     inkscape:window-height="739"
     inkscape:window-x="0"
     inkscape:window-y="0"
     inkscape:window-maximized="1" />
  <metadata
     id="metadata5">
    <rdf:RDF>
      <cc:Work
         rdf:about="">
        <dc:format>image/svg+xml</dc:format>
        <dc:type
           rdf:resource="http://purl.org/dc/dcmitype/StillImage" />
        <dc:title />
      </cc:Work>
    </rdf:RDF>
  </metadata>
  <g
     inkscape:label="Layer 1"
     inkscape:groupmode="layer"
     id="layer1">
    <g
       style="fill:#00a69c;fill-opacity:1"
       transform="matrix(0.5504563,0,0,0.5504563,-984.22581,-149.11847)"
       id="g1032">
      <path
         style="fill:#00a69c;fill-opacity:1"
         id="path1030"
         d="m 1853.6,332.8 v -3.7 c 1.1,-0.4 1.1,-2.1 -0.1,-2.4 -0.4,-0.1 -0.8,0 -1.1,0.2 l -3.2,-1.8 c 0.1,-0.7 -0.4,-1.5 -1.2,-1.5 -0.8,0 -1.4,0.7 -1.2,1.5 l -3.2,1.8 c -0.5,-0.5 -1.5,-0.4 -1.9,0.3 -0.4,0.7 0,1.6 0.6,1.8 v 3.7 c -0.7,0.2 -1,1.1 -0.6,1.8 0.4,0.7 1.4,0.8 1.9,0.3 l 3.2,1.8 c -0.1,0.7 0.4,1.5 1.2,1.5 0.8,0 1.4,-0.7 1.2,-1.5 l 3.2,-1.8 c 0.5,0.5 1.5,0.4 1.9,-0.3 0.3,-0.6 0,-1.5 -0.7,-1.7 z m -5.4,-6.6 c 0.4,-0.1 0.7,-0.3 0.9,-0.6 l 3.1,1.8 c -0.2,0.3 -0.2,0.7 -0.1,1.1 l -2.4,1.4 c -0.3,-0.5 -0.8,-0.8 -1.4,-0.8 v -2.9 z m -1.4,-0.7 c 0.2,0.3 0.5,0.5 0.9,0.6 v 2.8 c -0.6,0.1 -1.1,0.4 -1.4,0.8 l -2.4,-1.4 c 0.1,-0.4 0.1,-0.7 -0.1,-1.1 z m -4.1,7.2 v -3.5 c 0.4,0 0.7,-0.2 1,-0.4 l 2.4,1.4 c -0.2,0.5 -0.2,1.1 0,1.7 l -2.4,1.4 c -0.3,-0.4 -0.6,-0.6 -1,-0.6 z m 5,3.1 c -0.4,0.1 -0.7,0.3 -0.9,0.6 l -3.1,-1.8 c 0.2,-0.3 0.2,-0.7 0.1,-1.1 l 2.4,-1.4 c 0.3,0.5 0.8,0.8 1.4,0.8 v 2.9 z m 1.3,0.6 c -0.2,-0.3 -0.5,-0.5 -0.9,-0.6 V 333 c 0.6,-0.1 1.1,-0.4 1.4,-0.8 l 2.4,1.4 c -0.1,0.4 -0.1,0.7 0.1,1 z m 4.2,-3.7 c -0.4,0 -0.7,0.2 -1,0.4 l -2.4,-1.4 c 0.2,-0.5 0.2,-1.1 0,-1.7 l 2.4,-1.4 c 0.2,0.3 0.6,0.4 1,0.4 z"
         class="st1" />
    </g>
  </g>
  <style
     type="text/css"
     id="style2">
	.st0{fill:#FFFFFF;}
	.st1{fill:#00A69C;}
	.st2{fill:#231F20;}
	.st3{fill:#F1F1F2;}
</style>
  <style
     type="text/css"
     id="style2-0">
	.st0{fill:#FFFFFF;}
	.st1{fill:#00A69C;}
	.st2{fill:#231F20;}
	.st3{fill:#F1F1F2;}
</style>
  <style
     type="text/css"
     id="style2-9">
	.st0{fill:#FFFFFF;}
	.st1{fill:#00A69C;}
	.st2{fill:#231F20;}
	.st3{fill:#F1F1F2;}
</style>
  <style
     type="text/css"
     id="style2-2">
	.st0{fill:#FFFFFF;}
	.st1{fill:#00A69C;}
	.st2{fill:#231F20;}
	.st3{fill:#F1F1F2;}
</style>
  <style
     id="style932"
     type="text/css">
	.st0{fill:#FFFFFF;}
	.st1{fill:#00A69C;}
	.st2{fill:#231F20;}
	.st3{fill:#F1F1F2;}
</style>
</svg>
